<svg width="32" height="32" viewBox="0 0 32 32" fill="none" xmlns="http://www.w3.org/2000/svg"><path d="M15.134 1.5a1 1 0 0 1 1.732 0l12.124 21a1 1 0 0 1-.866 1.5H3.876a1 1 0 0 1-.866-1.5l12.124-21z" fill="#EB5757"/><path d="M16.916 16.588H15.45l-.114-9.185h1.705l-.123 9.185zm-1.643 2.795c0-.264.08-.484.237-.66.164-.181.405-.272.721-.272.316 0 .557.09.72.272a.929.929 0 0 1 .247.66.929.929 0 0 1-.246.659c-.164.17-.405.255-.721.255-.316 0-.557-.085-.72-.255a.949.949 0 0 1-.238-.66z" fill="#fff"/></svg>