<svg width="128" height="128" viewBox="0 0 128 128" fill="none" xmlns="http://www.w3.org/2000/svg">
<path d="M100.521 80.0415C100.456 78.4908 100.013 76.9795 99.2319 75.6383C98.0239 73.5199 96.7935 71.4143 95.5727 69.3023L98.5711 67.9263C102.334 66.1999 102.817 61.0463 99.4399 58.6463C98.0223 57.6399 97.3967 56.6975 96.3039 55.3679C95.8383 54.8015 95.3231 54.2639 94.9839 53.6079C93.1535 50.0959 96.8095 47.5471 96.8687 44.2607C96.8852 42.8647 96.3658 41.5156 95.4175 40.4911C95.1967 40.2527 92.1743 38.3439 92.1167 38.8175L92.3199 37.1999C92.8287 33.0911 88.6975 29.9711 84.8847 31.5855C82.0639 32.7791 79.2399 34.8575 76.2175 33.3455C73.4639 31.9727 72.2047 28.8175 70.7871 26.3615C70.169 25.3063 69.2126 24.4908 68.073 24.0474C66.9334 23.6039 65.6774 23.5584 64.5087 23.9183C61.7327 24.7871 60.7871 27.7791 57.5775 28.1071C54.7247 28.3983 51.1775 24.3999 48.9295 22.8063C45.5519 20.4063 40.8479 22.5695 40.4623 26.6911C40.1423 30.0271 41.4783 37.5487 36.7311 37.4319C32.5919 37.3295 29.8943 41.7519 31.8751 45.3823C32.7999 47.0799 36.0239 50.8223 34.3247 52.9599C33.2799 54.2911 29.4815 55.0399 27.8399 55.7295C24.0271 57.3439 23.3903 62.4799 26.6959 64.9759C29.5631 67.1407 33.4159 68.6895 33.1231 72.7999C33.0549 73.4096 32.9163 74.0093 32.7103 74.5871C32.1265 76.4498 31.388 78.2604 30.5023 79.9999C28.5087 83.4543 30.8367 87.7375 34.7103 88.0479L34.6815 88.3567C34.2959 92.4799 38.5215 95.4735 42.2799 93.7471L48.6975 90.8031C50.0479 90.1839 51.9215 88.8671 53.3519 89.1231C56.3919 89.6687 57.2799 93.2463 59.2863 95.0431C60.2769 95.9217 61.5558 96.4057 62.8799 96.4031C63.2831 96.4031 66.7343 95.2063 66.4815 95.0143L76.1279 102.297C79.4319 104.792 84.1983 102.777 84.7071 98.6655C84.9551 96.6639 84.4639 94.7919 85.9663 93.3535C87.3775 92.0031 89.3471 91.2735 91.1727 90.6911C94.0655 89.7663 97.8591 89.2223 99.1807 86.1487C100.07 84.0863 100.605 82.0543 100.521 80.0415Z" fill="url(#paint0_linear)"/>
<path d="M26.12 45.3057C25.7392 44.8497 25.8112 44.1473 25.4352 43.6593C25.2239 43.3863 24.9559 43.1625 24.6497 43.0032C24.3434 42.844 24.0063 42.7531 23.6615 42.7368C23.3167 42.7205 22.9724 42.7792 22.6526 42.9089C22.3327 43.0386 22.0447 43.2362 21.8086 43.488C21.5725 43.7398 21.3939 44.0399 21.2851 44.3674C21.1762 44.695 21.1397 45.0423 21.1782 45.3853C21.2166 45.7284 21.329 46.059 21.5076 46.3543C21.6863 46.6497 21.9269 46.9028 22.2128 47.0961C22.8912 47.5553 23.472 47.4369 23.9472 48.1697C24.4224 48.9025 24.96 49.5393 25.9328 49.5393C26.473 49.5393 26.9911 49.3247 27.3731 48.9427C27.755 48.5607 27.9696 48.0427 27.9696 47.5025C27.9696 46.3057 27.1952 46.0401 26.3696 45.5153C26.2758 45.4592 26.1915 45.3884 26.12 45.3057Z" fill="#EB3B27"/>
<path d="M110.706 27.144C110.815 26.7535 111.008 26.3915 111.271 26.0832C111.591 25.7216 112.103 25.6032 112.582 25.5264C114.086 25.2992 115.535 25.9376 115.69 23.9616C115.727 23.5028 115.672 23.0414 115.53 22.6036C115.388 22.1659 115.161 21.7604 114.862 21.4103C114.564 21.0603 114.199 20.7725 113.789 20.5635C113.379 20.3544 112.932 20.2282 112.473 20.192C109.377 19.9472 110.922 22.3696 109.343 23.7904C107.764 25.2112 105.681 23.7008 105.446 26.6704C105.415 27.0621 105.461 27.4561 105.582 27.8298C105.704 28.2035 105.897 28.5497 106.152 28.8485C106.408 29.1473 106.719 29.393 107.069 29.5713C107.419 29.7497 107.801 29.8573 108.193 29.888C110.462 30.0624 110.281 28.5136 110.706 27.144Z" fill="#EB3B27"/>
<path d="M28.8191 53.264C29.6144 53.264 30.2591 52.6193 30.2591 51.824C30.2591 51.0287 29.6144 50.384 28.8191 50.384C28.0239 50.384 27.3792 51.0287 27.3792 51.824C27.3792 52.6193 28.0239 53.264 28.8191 53.264Z" fill="#FE7223"/>
<path d="M104.403 35.4031C104.579 34.9502 104.355 34.4401 103.902 34.2636C103.449 34.0872 102.939 34.3112 102.763 34.764C102.586 35.2169 102.81 35.727 103.263 35.9035C103.716 36.08 104.226 35.8559 104.403 35.4031Z" fill="#FE7223"/>
<path d="M110.059 34.9846C110.387 34.1432 109.971 33.1952 109.129 32.8673C108.288 32.5394 107.34 32.9557 107.012 33.7972C106.684 34.6387 107.1 35.5866 107.942 35.9145C108.783 36.2424 109.731 35.8261 110.059 34.9846Z" fill="#FE7223"/>
<path d="M47.2193 107.824C49.6935 107.824 51.6993 105.818 51.6993 103.344C51.6993 100.87 49.6935 98.864 47.2193 98.864C44.745 98.864 42.7393 100.87 42.7393 103.344C42.7393 105.818 44.745 107.824 47.2193 107.824Z" fill="#FE7223"/>
<path d="M37.8161 101.93C37.9249 101.696 38.3489 101.629 38.5041 101.45C38.698 101.224 38.7942 100.93 38.7716 100.633C38.7489 100.336 38.6092 100.06 38.3833 99.8664C38.1573 99.6725 37.8636 99.5763 37.5666 99.599C37.2697 99.6216 36.994 99.7613 36.8001 99.9872C36.5761 100.246 36.5905 100.827 36.1329 100.738C35.6753 100.648 35.3057 100.514 34.8401 100.534C34.147 100.564 33.4811 100.812 32.9383 101.244C32.3954 101.676 32.0035 102.269 31.819 102.938C31.6345 103.607 31.6669 104.317 31.9115 104.966C32.156 105.615 32.6002 106.17 33.1801 106.55C33.76 106.931 34.4458 107.118 35.1386 107.084C35.8315 107.051 36.4958 106.798 37.0361 106.363C37.5763 105.928 37.9645 105.332 38.1449 104.663C38.3253 103.993 38.2886 103.283 38.0401 102.635C37.9761 102.467 37.7825 102.234 37.7761 102.056C37.779 102.011 37.7927 101.968 37.8161 101.93Z" fill="#FE7223"/>
<path d="M51.2991 94.224C51.8293 94.224 52.2591 93.7942 52.2591 93.264C52.2591 92.7338 51.8293 92.304 51.2991 92.304C50.7689 92.304 50.3391 92.7338 50.3391 93.264C50.3391 93.7942 50.7689 94.224 51.2991 94.224Z" fill="#520900"/>
<path d="M52.819 102.384C53.1283 102.384 53.379 102.133 53.379 101.824C53.379 101.515 53.1283 101.264 52.819 101.264C52.5098 101.264 52.259 101.515 52.259 101.824C52.259 102.133 52.5098 102.384 52.819 102.384Z" fill="#520900"/>
<path d="M58.5792 99.6641C59.3303 99.6641 59.9392 99.0552 59.9392 98.3041C59.9392 97.553 59.3303 96.9441 58.5792 96.9441C57.8281 96.9441 57.2192 97.553 57.2192 98.3041C57.2192 99.0552 57.8281 99.6641 58.5792 99.6641Z" fill="#520900"/>
<path d="M63.9999 84.88C76.3269 84.88 86.3199 74.887 86.3199 62.56C86.3199 50.233 76.3269 40.24 63.9999 40.24C51.6729 40.24 41.6799 50.233 41.6799 62.56C41.6799 74.887 51.6729 84.88 63.9999 84.88Z" fill="white"/>
<path d="M59.0613 69.7029H56.77L56.3783 67.0977H53.5918L53.2 69.7029H51.1157L53.4267 55.3398H56.7527L59.0613 69.7029ZM53.8874 65.1486H56.0752L54.9813 57.8863L53.8874 65.1486Z" fill="#333333"/>
<path d="M64.863 69.7029C64.7398 69.3331 64.6561 69.1079 64.6561 67.9375V65.68C64.6561 64.3455 64.2027 63.8534 63.1778 63.8534H62.3944V69.7004H60.1228V55.3398H63.5499C65.9027 55.3398 66.9153 56.427 66.9153 58.6429V59.7717C66.9153 61.2408 66.4398 62.2202 65.4371 62.6854C66.5729 63.158 66.9449 64.2451 66.9449 65.7436V67.9473C66.9449 68.6451 66.9646 69.1569 67.1913 69.6906L64.863 69.7029ZM62.387 57.3917V61.799H63.2739C64.1214 61.799 64.6364 61.4293 64.6364 60.281V58.8657C64.6364 57.8398 64.2865 57.3966 63.4809 57.3966L62.387 57.3917Z" fill="#333333"/>
<path d="M67.7532 55.3398H74.7724V57.3917H72.3973V69.7029H70.1258V57.3917H67.7507L67.7532 55.3398Z" fill="#333333"/>
<path d="M63.84 87.04C50.2528 87.04 39.2 75.9872 39.2 62.4C39.2 48.8128 50.2528 37.76 63.84 37.76C77.4272 37.76 88.4799 48.8128 88.4799 62.4C88.4799 75.9872 77.4272 87.04 63.84 87.04ZM63.84 37.92C50.3424 37.92 39.36 48.9024 39.36 62.4C39.36 75.8976 50.3424 86.88 63.84 86.88C77.3376 86.88 88.32 75.8976 88.32 62.4C88.32 48.9024 77.3376 37.92 63.84 37.92Z" fill="white"/>
<defs>
<linearGradient id="paint0_linear" x1="30.7327" y1="85.7503" x2="95.3023" y2="38.8383" gradientUnits="userSpaceOnUse">
<stop stop-color="#FE7223"/>
<stop offset="0.99" stop-color="#EA3C28"/>
</linearGradient>
</defs>
</svg>
