<svg width="128" height="128" viewBox="0 0 128 128" fill="none" xmlns="http://www.w3.org/2000/svg"><path d="M100.521 80.041a9.544 9.544 0 0 0-1.29-4.403c-1.207-2.118-2.438-4.224-3.658-6.336l2.998-1.376c3.763-1.726 4.246-6.88.869-9.28-1.418-1.006-2.043-1.949-3.136-3.278-.466-.567-.98-1.104-1.32-1.76-1.83-3.512 1.826-6.06 1.885-9.347a5.454 5.454 0 0 0-1.451-3.77c-.221-.238-3.244-2.147-3.301-1.673l.203-1.618c.509-4.109-3.622-7.229-7.435-5.615-2.821 1.194-5.645 3.273-8.668 1.76-2.753-1.372-4.012-4.527-5.43-6.983a5.426 5.426 0 0 0-6.278-2.444c-2.776.87-3.722 3.861-6.931 4.19-2.853.29-6.4-3.708-8.649-5.302-3.377-2.4-8.081-.236-8.467 3.885-.32 3.336 1.016 10.858-3.73 10.74-4.14-.101-6.838 4.32-4.857 7.951.925 1.698 4.149 5.44 2.45 7.578-1.045 1.331-4.844 2.08-6.485 2.77-3.813 1.614-4.45 6.75-1.144 9.246 2.867 2.165 6.72 3.713 6.427 7.824a7.955 7.955 0 0 1-.413 1.787A34.996 34.996 0 0 1 30.502 80c-1.993 3.454.335 7.737 4.208 8.048l-.029.309c-.385 4.123 3.84 7.117 7.599 5.39l6.417-2.944c1.35-.62 3.224-1.936 4.655-1.68 3.04.546 3.928 4.123 5.934 5.92a5.4 5.4 0 0 0 3.594 1.36c.403 0 3.854-1.197 3.601-1.389l9.647 7.283c3.304 2.495 8.07.48 8.58-3.632.247-2.001-.244-3.873 1.258-5.312 1.412-1.35 3.381-2.08 5.207-2.662 2.892-.925 6.686-1.469 8.008-4.542.889-2.063 1.424-4.095 1.34-6.108z" fill="url(#a)"/><path d="M26.12 45.306c-.38-.456-.309-1.159-.685-1.647a2.385 2.385 0 1 0-3.222 3.437c.678.46 1.259.34 1.734 1.074.475.733 1.013 1.37 1.986 1.37a2.037 2.037 0 0 0 2.037-2.038c0-1.196-.775-1.462-1.6-1.987a1.027 1.027 0 0 1-.25-.21zm84.586-18.162a2.79 2.79 0 0 1 .565-1.06c.32-.362.832-.48 1.311-.558 1.504-.227 2.953.412 3.108-1.564a3.492 3.492 0 0 0-.828-2.552 3.492 3.492 0 0 0-2.389-1.218c-3.096-.245-1.551 2.178-3.13 3.598-1.579 1.421-3.662-.09-3.897 2.88a2.996 2.996 0 0 0 .706 2.178 3.002 3.002 0 0 0 2.041 1.04c2.269.174 2.088-1.374 2.513-2.744z" fill="#EB3B27"/><path d="M28.82 53.264a1.44 1.44 0 1 0 0-2.88 1.44 1.44 0 0 0 0 2.88zm75.583-17.861a.88.88 0 1 0-1.641-.638.88.88 0 0 0 1.641.638zm5.656-.418a1.635 1.635 0 1 0-3.046-1.188 1.635 1.635 0 0 0 3.046 1.188zM47.22 107.824a4.48 4.48 0 1 0-.001-8.96 4.48 4.48 0 0 0 0 8.96zm-9.404-5.894c.109-.234.533-.301.688-.48a1.124 1.124 0 0 0-1.704-1.463c-.224.259-.21.84-.667.751-.458-.09-.827-.224-1.293-.204a3.281 3.281 0 0 0-2.929 4.432 3.274 3.274 0 0 0 3.228 2.118 3.275 3.275 0 0 0 3.006-2.421 3.28 3.28 0 0 0-.105-2.028c-.064-.168-.258-.401-.264-.579a.273.273 0 0 1 .04-.126z" fill="#FE7223"/><path d="M51.3 94.224a.96.96 0 1 0 0-1.92.96.96 0 0 0 0 1.92zm1.519 8.16a.56.56 0 1 0 0-1.12.56.56 0 0 0 0 1.12zm5.761-2.72a1.36 1.36 0 1 0 0-2.72 1.36 1.36 0 0 0 0 2.72z" fill="#520900"/><path d="M64 84.88c12.327 0 22.32-9.993 22.32-22.32S76.327 40.24 64 40.24s-22.32 9.993-22.32 22.32S51.673 84.88 64 84.88z" fill="#fff"/><path d="M59.061 69.703H56.77l-.392-2.605h-2.786l-.392 2.605h-2.084l2.31-14.363h3.327l2.308 14.363zm-5.174-4.554h2.188l-1.094-7.263-1.094 7.263zm10.976 4.554c-.123-.37-.207-.595-.207-1.766V65.68c0-1.335-.453-1.827-1.478-1.827h-.784V69.7h-2.271V55.34h3.427c2.353 0 3.365 1.087 3.365 3.303v1.129c0 1.469-.475 2.448-1.478 2.913 1.136.473 1.508 1.56 1.508 3.059v2.203c0 .698.02 1.21.246 1.744l-2.328.012zm-2.476-12.311v4.407h.887c.847 0 1.362-.37 1.362-1.518v-1.415c0-1.026-.35-1.47-1.155-1.47l-1.094-.004zm5.366-2.052h7.02v2.052h-2.376v12.31h-2.271v-12.31H67.75l.002-2.052z" fill="#333"/><path d="M63.84 87.04c-13.587 0-24.64-11.053-24.64-24.64s11.053-24.64 24.64-24.64S88.48 48.813 88.48 62.4 77.427 87.04 63.84 87.04zm0-49.12c-13.498 0-24.48 10.982-24.48 24.48 0 13.498 10.982 24.48 24.48 24.48 13.498 0 24.48-10.982 24.48-24.48 0-13.498-10.982-24.48-24.48-24.48z" fill="#fff"/><defs><linearGradient id="a" x1="30.733" y1="85.75" x2="95.302" y2="38.838" gradientUnits="userSpaceOnUse"><stop stop-color="#FE7223"/><stop offset=".99" stop-color="#EA3C28"/></linearGradient></defs></svg>